<?xml version="1.0" encoding="utf-8"?>
<!-- Generator: Adobe Illustrator 26.0.2, SVG Export Plug-In . SVG Version: 6.00 Build 0)  -->
<svg version="1.1" id="Capa_1" xmlns="http://www.w3.org/2000/svg" xmlns:xlink="http://www.w3.org/1999/xlink" x="0px" y="0px"
	 viewBox="0 0 512 512" style="enable-background:new 0 0 512 512;" xml:space="preserve">
<style type="text/css">
	.st0{fill:#666666;}
</style>
<g>
	<g>
		<path class="st0" d="M5.9,268l164.3,164.3c0.6,0.7,1.1,1.3,1.8,1.8c6.9,5.9,17.2,5.1,23.1-1.8s5.1-17.2-1.8-23.1L57.1,272.9h438.5
			c9,0,16.4-7.3,16.4-16.4c0-9-7.3-16.4-16.4-16.4H57.1l136.2-136.3c0.7-0.6,1.3-1.1,1.8-1.8c5.9-6.9,5.1-17.2-1.8-23.1
			c-6.9-5.9-17.2-5.1-23.1,1.8L5.9,244.9l0,0C-0.5,251.2-0.5,261.7,5.9,268z"/>
	</g>
</g>
</svg>
